<?xml version="1.0" encoding="utf-8"?>
<!-- Generator: Adobe Illustrator 19.1.0, SVG Export Plug-In . SVG Version: 6.00 Build 0)  -->
<svg version="1.1" id="Layer_1" xmlns="http://www.w3.org/2000/svg" xmlns:xlink="http://www.w3.org/1999/xlink" x="0px" y="0px"
	 viewBox="0 0 50 50" enable-background="new 0 0 50 50" xml:space="preserve">
<path fill="#FFFFFF" d="M23.2,29.2c-0.7,3.6-1.5,7-4,8.8c-0.8-5.4,1.1-9.5,2-13.8c-1.5-2.5,0.2-7.6,3.3-6.3
	c3.9,1.5-3.3,9.3,1.5,10.3c5.1,1,7.1-8.8,4-12c-4.5-4.6-13.2-0.1-12.1,6.5c0.3,1.6,1.9,2.1,0.7,4.3c-2.9-0.6-3.8-2.9-3.7-6
	c0.2-5,4.5-8.5,8.8-9c5.5-0.6,10.6,2,11.3,7.1c0.8,5.8-2.5,12.1-8.3,11.6C25.1,30.7,24.4,30,23.2,29.2z"/>
</svg>
