<?xml version="1.0" encoding="utf-8"?>
<!-- Generator: Adobe Illustrator 19.1.0, SVG Export Plug-In . SVG Version: 6.00 Build 0)  -->
<svg version="1.1" id="Layer_1" xmlns="http://www.w3.org/2000/svg" xmlns:xlink="http://www.w3.org/1999/xlink" x="0px" y="0px"
	 viewBox="0 0 50 50" enable-background="new 0 0 50 50" xml:space="preserve">
<path fill="#FFFFFF" d="M35.4,20.4c0,0.2,0,0.4,0,0.7c0,6.7-5.1,14.4-14.4,14.4c-2.9,0-5.5-0.8-7.7-2.3c0.4,0,0.8,0.1,1.2,0.1
	c2.4,0,4.5-0.8,6.3-2.2c-2.2,0-4.1-1.5-4.7-3.5c0.3,0.1,0.6,0.1,0.9,0.1c0.5,0,0.9-0.1,1.3-0.2c-2.3-0.5-4.1-2.5-4.1-5
	c0,0,0,0,0-0.1c0.7,0.4,1.5,0.6,2.3,0.6c-1.4-0.9-2.2-2.5-2.2-4.2c0-0.9,0.2-1.8,0.7-2.5c2.5,3.1,6.2,5.1,10.4,5.3
	c-0.1-0.4-0.1-0.8-0.1-1.2c0-2.8,2.3-5,5-5c1.5,0,2.8,0.6,3.7,1.6c1.1-0.2,2.2-0.6,3.2-1.2c-0.4,1.2-1.2,2.2-2.2,2.8
	c1-0.1,2-0.4,2.9-0.8C37.3,18.8,36.4,19.6,35.4,20.4z"/>
</svg>
